<?xml version="1.0" encoding="UTF-8" standalone="no"?>
<!-- Created with Inkscape (http://www.inkscape.org/) -->

<svg
   width="809.22144"
   height="1074.2234"
   viewBox="0 0 809.22144 1074.2234"
   version="1.1"
   id="svg1"
   xml:space="preserve"
   inkscape:version="1.3 (0e150ed6c4, 2023-07-21)"
   sodipodi:docname="logo.svg"
   inkscape:export-filename="Logo-03.svg"
   inkscape:export-xdpi="180"
   inkscape:export-ydpi="180"
   xmlns:inkscape="http://www.inkscape.org/namespaces/inkscape"
   xmlns:sodipodi="http://sodipodi.sourceforge.net/DTD/sodipodi-0.dtd"
   xmlns:xlink="http://www.w3.org/1999/xlink"
   xmlns="http://www.w3.org/2000/svg"
   xmlns:svg="http://www.w3.org/2000/svg"><sodipodi:namedview
     id="namedview1"
     pagecolor="#ffffff"
     bordercolor="#000000"
     borderopacity="0.25"
     inkscape:showpageshadow="2"
     inkscape:pageopacity="0.0"
     inkscape:pagecheckerboard="0"
     inkscape:deskcolor="#d1d1d1"
     inkscape:document-units="px"
     inkscape:zoom="0.35355339"
     inkscape:cx="715.59206"
     inkscape:cy="688.72201"
     inkscape:window-width="1920"
     inkscape:window-height="1009"
     inkscape:window-x="-8"
     inkscape:window-y="-8"
     inkscape:window-maximized="1"
     inkscape:current-layer="layer1"
     inkscape:export-bgcolor="#2d363f00" /><defs
     id="defs1"><inkscape:path-effect
       effect="offset"
       id="path-effect47"
       is_visible="true"
       lpeversion="1.2"
       linejoin_type="miter"
       unit="mm"
       offset="1.5"
       miter_limit="4"
       attempt_force_join="false"
       update_on_knot_move="true" /><linearGradient
       id="linearGradient46"
       inkscape:collect="always"><stop
         style="stop-color:#7b7f86;stop-opacity:1;"
         offset="0"
         id="stop46" /><stop
         style="stop-color:#c4c4ca;stop-opacity:1;"
         offset="1"
         id="stop47" /></linearGradient><linearGradient
       inkscape:collect="always"
       xlink:href="#linearGradient46"
       id="linearGradient47"
       x1="-2000"
       y1="208.5459"
       x2="-1396.5391"
       y2="208.5459"
       gradientUnits="userSpaceOnUse" /><filter
       inkscape:collect="always"
       style="color-interpolation-filters:sRGB"
       id="filter47"
       x="-0.016940946"
       y="-0.017844457"
       width="1.0338819"
       height="1.0356889"><feGaussianBlur
         inkscape:collect="always"
         stdDeviation="4.3716727"
         id="feGaussianBlur47" /></filter></defs><g
     inkscape:label="Layer 1"
     inkscape:groupmode="layer"
     id="layer1"
     transform="translate(-555.38928,-2.8883262)"><g
       id="g50"
       transform="matrix(1.2637922,0,0,1.2637922,3106.2598,262.14317)"><path
         sodipodi:type="star"
         style="fill:#2d363f;fill-opacity:1;stroke-width:0;stroke-linecap:round;stroke-linejoin:round"
         id="path2-9"
         inkscape:flatsided="true"
         sodipodi:sides="6"
         sodipodi:cx="-1587.7751"
         sodipodi:cy="584.62921"
         sodipodi:r1="323.23575"
         sodipodi:r2="279.93039"
         sodipodi:arg1="0.52359878"
         sodipodi:arg2="1.0471976"
         inkscape:rounded="0"
         inkscape:randomized="0"
         d="m -1307.8448,746.24709 -279.9303,161.61787 -279.9304,-161.61788 0,-323.23574 279.9304,-161.61788 279.9303,161.61788 z"
         transform="matrix(1.1074182,0,0,1.3148298,60.061588,-548.82832)" /><g
         id="g47"><path
           id="path47"
           style="opacity:0.5;fill:#000000;fill-opacity:1;stroke-width:0;stroke-linecap:round;stroke-linejoin:round;filter:url(#filter47)"
           d="m -1698.2695,-85.439453 -309.6641,212.271483 45.0723,30.89649 264.5918,-181.375004 173.832,119.160156 h -165.627 l 58.5079,62.736328 h 46.6777 l -122.6055,199.46289 h 129.9766 l -121.1152,83.02539 -117.4083,-80.48242 v -85.76953 h 23.3438 l 73.416,78.45703 33.1524,-53.80859 -26.6914,-28.52149 c 36.732,-11.17015 63.4082,-45.27568 63.4082,-85.61328 0,-49.3319 -39.865,-89.287716 -89.1543,-89.46875 0.5309,-0.005 0.32,-0.0098 -0.2403,-0.01367 -0.031,-3.1e-5 -0.061,-0.0039 -0.092,-0.0039 h -0.2031 l -0.018,0.002 c -0.1651,-2.12e-4 0.052,-0.002 -0.1719,-0.002 h -132.2753 l -82.3829,56.472658 h 209.0547 l 0.3516,0.0527 0.5195,-0.0469 c 18.1848,0.0304 32.959,14.81617 32.959,33.00781 0,18.189 -14.7701,32.97309 -32.9512,33.00781 -0.018,-0.001 -0.057,-0.005 -0.07,-0.006 l -0.1621,-0.0117 h -0.1621 c -3.208,0 -0.062,0.0234 -0.062,0.0234 h -132.5586 v 51.5957 c 0,0.89918 0.011,0.61786 0.018,0.85352 v 51.25 l 7.2363,4.96094 -42.6992,29.26953 213.8438,146.58789 214.5507,-147.07227 -42.7558,-29.31054 6.6113,-4.53321 v -26.63867 h -66.5742 l 104.4453,-170.60937 48.668,33.36133 45.0722,-30.89649 -108.3203,-74.251952 V -50.835937 c 0,-2.782333 -2.1233,-4.875 -4.8769,-4.875 h -19.6094 -19.6094 -113.8808 z m 114.8105,78.7011718 h 37.5606 V 19.009766 Z m -115.3066,1.6386718 v 0.1445313 l -4.0879,0.5273437 c -16.2167,2.0920859 -28.9646,14.8399134 -31.0567,31.0566404 l -0.5273,4.087891 h -0.125 l 0.062,0.486328 -0.062,0.486328 h 0.125 l 0.5273,4.087891 c 2.093,16.215862 14.8407,28.962829 31.0567,31.054687 l 4.0879,0.527344 v 0.125 l 0.4863,-0.0625 0.4863,0.0625 v -0.125 l 4.0879,-0.527344 c 16.216,-2.091858 28.9637,-14.838825 31.0567,-31.054687 l 0.5273,-4.087891 h 0.1426 l -0.072,-0.554687 0.055,-0.417969 h -0.1074 l -0.5254,-4.083985 c -2.084,-16.233411 -14.8449,-28.996861 -31.0781,-31.0820307 l -4.086,-0.5253907 v -0.1054687 l -0.4101,0.052734 z M -1943.9473,165.51367 v 188 l 50.9707,-34.93945 V 165.51367 Z m 440,0 v 153.06055 l 50.9707,34.93945 v -188 z"
           inkscape:path-effect="#path-effect47"
           inkscape:original-d="M -1698.2695,-80 -2000,126.83203 l 37.1387,25.45703 264.5918,-181.373044 264.5918,181.373044 37.1386,-25.45703 -104.873,-71.888671 V -50.835938 c 0,-0.216099 -0.1745,-0.388671 -0.3906,-0.388671 h -19.6094 -19.6094 -100.7793 l 58.3535,40 h 42.0352 v 38.748047 z m 3.9902,80 v 27.203125 h 27.2012 A 31.466251,31.466251 0 0 0 -1694.2793,0 Z m -8,0.02148438 a 31.466251,31.466251 0 0 0 -27.1816,27.18164062 h 27.1816 z m -27.1816,35.18164062 a 31.466251,31.466251 0 0 0 27.1816,27.179687 V 35.203125 Z m 35.1816,0 v 27.179687 a 31.466251,31.466251 0 0 0 27.1816,-27.179687 z M -1870.166,100 l -69.2949,47.5 h 194.998 c 0.023,0 0.042,0.0204 0.062,0.0234 0.1106,-0.01 0.2213,-0.0164 0.332,-0.0234 20.7107,0 37.5,16.78942 37.5,37.5 0,20.71058 -16.7893,37.5 -37.5,37.5 -0.1107,-0.01 -0.2214,-0.0154 -0.332,-0.0234 -0.022,0 -0.04,0.0234 -0.062,0.0234 h -128.0723 v 47.10938 c 0,0.013 0.016,0.0202 0.018,0.0332 v 49.70703 l 52,35.64453 V 270 h 29.7754 l 70.7324,75.58984 28.2735,-45.89062 -29.5157,-31.54297 c 38.4785,-8.12109 67.3633,-42.26079 67.3633,-83.15625 0,-46.94395 -38.0559,-85 -85,-85 -0.1107,0.01 -0.2213,0.0154 -0.332,0.0234 -0.021,0 -0.038,-0.0234 -0.06,-0.0234 z m 190.4199,0 50.1406,53.76367 h 52.75 l -122.6054,199.46289 h 125.1972 l 49.5606,-33.97461 v -19.78906 h -70.0938 L -1488.3711,125.61523 -1525.7383,100 Z m -259.7148,70 v 175 l 41.998,-28.78906 V 170 Z m 440,0 V 316.21094 L -1457.4629,345 V 170 Z m -29.6836,160 -169.4785,116.17578 -168.7715,-115.68945 -37.1387,25.45703 205.9102,141.14844 206.6171,-141.63282 z"
           transform="translate(0,11.313708)" /><path
           id="path40"
           style="fill:url(#linearGradient47);fill-opacity:1;stroke-width:0;stroke-linecap:round;stroke-linejoin:round"
           d="M -1698.2695,-80 -2000,126.83203 l 37.1387,25.45703 264.5918,-181.373044 264.5918,181.373044 37.1386,-25.45703 -104.873,-71.888671 V -50.835938 c 0,-0.216099 -0.1745,-0.388671 -0.3906,-0.388671 h -19.6094 -19.6094 -100.7793 l 58.3535,40 h 42.0352 v 38.748047 z m 3.9902,80 v 27.203125 h 27.2012 A 31.466251,31.466251 0 0 0 -1694.2793,0 Z m -8,0.02148438 a 31.466251,31.466251 0 0 0 -27.1816,27.18164062 h 27.1816 z m -27.1816,35.18164062 a 31.466251,31.466251 0 0 0 27.1816,27.179687 V 35.203125 Z m 35.1816,0 v 27.179687 a 31.466251,31.466251 0 0 0 27.1816,-27.179687 z M -1870.166,100 l -69.2949,47.5 h 194.998 c 0.023,0 0.042,0.0204 0.062,0.0234 0.1106,-0.01 0.2213,-0.0164 0.332,-0.0234 20.7107,0 37.5,16.78942 37.5,37.5 0,20.71058 -16.7893,37.5 -37.5,37.5 -0.1107,-0.01 -0.2214,-0.0154 -0.332,-0.0234 -0.022,0 -0.04,0.0234 -0.062,0.0234 h -128.0723 v 47.10938 c 0,0.013 0.016,0.0202 0.018,0.0332 v 49.70703 l 52,35.64453 V 270 h 29.7754 l 70.7324,75.58984 28.2735,-45.89062 -29.5157,-31.54297 c 38.4785,-8.12109 67.3633,-42.26079 67.3633,-83.15625 0,-46.94395 -38.0559,-85 -85,-85 -0.1107,0.01 -0.2213,0.0154 -0.332,0.0234 -0.021,0 -0.038,-0.0234 -0.06,-0.0234 z m 190.4199,0 50.1406,53.76367 h 52.75 l -122.6054,199.46289 h 125.1972 l 49.5606,-33.97461 v -19.78906 h -70.0938 L -1488.3711,125.61523 -1525.7383,100 Z m -259.7148,70 v 175 l 41.998,-28.78906 V 170 Z m 440,0 V 316.21094 L -1457.4629,345 V 170 Z m -29.6836,160 -169.4785,116.17578 -168.7715,-115.68945 -37.1387,25.45703 205.9102,141.14844 206.6171,-141.63282 z" /></g></g></g></svg>
